<svg xmlns="http://www.w3.org/2000/svg" version="1.1" xmlns:xlink="http://www.w3.org/1999/xlink" xmlns:svgjs="http://svgjs.dev/svgjs" viewBox="0 0 800 800"><defs><linearGradient x1="50%" y1="0%" x2="50%" y2="100%" id="ffflurry-grad" gradientTransform="rotate(270)"><stop stop-color="hsl(238, 18%, 62%)" stop-opacity="1" offset="0%"></stop><stop stop-color="#ffcc2a" stop-opacity="1" offset="45%"></stop><stop stop-color="#1c4fae" stop-opacity="1" offset="100%"></stop></linearGradient></defs><rect width="100%" height="100%" fill="hsl(238, 18%, 62%)"></rect><g fill="url(#ffflurry-grad)"><rect width="666" height="6" x="-304" y="140" rx="3" transform="rotate(41, 29, 143)" opacity="0.52"></rect><rect width="604" height="6" x="292" y="401" rx="3" transform="rotate(41, 594, 404)" opacity="0.24"></rect><rect width="331" height="6" x="92.5" y="709" rx="3" transform="rotate(41, 258, 712)" opacity="0.14"></rect><rect width="103" height="6" x="193.5" y="762" rx="3" transform="rotate(41, 245, 765)" opacity="0.65"></rect><rect width="686" height="6" x="-173" y="687" rx="3" transform="rotate(41, 170, 690)" opacity="0.19"></rect><rect width="182" height="6" x="215" y="202" rx="3" transform="rotate(41, 306, 205)" opacity="0.60"></rect><rect width="604" height="6" x="-123" y="760" rx="3" transform="rotate(41, 179, 763)" opacity="0.77"></rect><rect width="687" height="6" x="156.5" y="341" rx="3" transform="rotate(41, 500, 344)" opacity="0.47"></rect><rect width="434" height="6" x="222" y="282" rx="3" transform="rotate(41, 439, 285)" opacity="0.41"></rect><rect width="603" height="6" x="261.5" y="207" rx="3" transform="rotate(41, 563, 210)" opacity="0.63"></rect><rect width="541" height="6" x="-69.5" y="110" rx="3" transform="rotate(41, 201, 113)" opacity="0.77"></rect><rect width="49" height="6" x="346.5" y="648" rx="3" transform="rotate(41, 371, 651)" opacity="0.78"></rect><rect width="60" height="6" x="120" y="132" rx="3" transform="rotate(41, 150, 135)" opacity="0.92"></rect><rect width="231" height="6" x="180.5" y="541" rx="3" transform="rotate(41, 296, 544)" opacity="0.54"></rect><rect width="368" height="6" x="470" y="28" rx="3" transform="rotate(41, 654, 31)" opacity="0.63"></rect><rect width="611" height="6" x="-34.5" y="644" rx="3" transform="rotate(41, 271, 647)" opacity="0.96"></rect><rect width="649" height="6" x="190.5" y="268" rx="3" transform="rotate(41, 515, 271)" opacity="0.22"></rect><rect width="706" height="6" x="-245" y="642" rx="3" transform="rotate(41, 108, 645)" opacity="0.67"></rect><rect width="104" height="6" x="553" y="658" rx="3" transform="rotate(41, 605, 661)" opacity="0.89"></rect><rect width="640" height="6" x="191" y="163" rx="3" transform="rotate(41, 511, 166)" opacity="0.57"></rect><rect width="547" height="6" x="488.5" y="38" rx="3" transform="rotate(41, 762, 41)" opacity="0.32"></rect><rect width="494" height="6" x="-132" y="399" rx="3" transform="rotate(41, 115, 402)" opacity="0.26"></rect><rect width="138" height="6" x="-34" y="524" rx="3" transform="rotate(41, 35, 527)" opacity="0.20"></rect><rect width="525" height="6" x="-163.5" y="179" rx="3" transform="rotate(41, 99, 182)" opacity="0.71"></rect><rect width="26" height="6" x="179" y="198" rx="3" transform="rotate(41, 192, 201)" opacity="0.39"></rect><rect width="453" height="6" x="179.5" y="316" rx="3" transform="rotate(41, 406, 319)" opacity="0.28"></rect><rect width="393" height="6" x="29.5" y="556" rx="3" transform="rotate(41, 226, 559)" opacity="0.76"></rect><rect width="75" height="6" x="724.5" y="745" rx="3" transform="rotate(41, 762, 748)" opacity="0.41"></rect><rect width="633" height="6" x="95.5" y="575" rx="3" transform="rotate(41, 412, 578)" opacity="0.30"></rect><rect width="230" height="6" x="516" y="478" rx="3" transform="rotate(41, 631, 481)" opacity="0.13"></rect><rect width="204" height="6" x="359" y="620" rx="3" transform="rotate(41, 461, 623)" opacity="0.93"></rect><rect width="205" height="6" x="250.5" y="342" rx="3" transform="rotate(41, 353, 345)" opacity="0.88"></rect><rect width="314" height="6" x="416" y="314" rx="3" transform="rotate(41, 573, 317)" opacity="0.24"></rect><rect width="411" height="6" x="-101.5" y="742" rx="3" transform="rotate(41, 104, 745)" opacity="0.14"></rect><rect width="522" height="6" x="449" y="641" rx="3" transform="rotate(41, 710, 644)" opacity="0.35"></rect><rect width="270" height="6" x="188" y="695" rx="3" transform="rotate(41, 323, 698)" opacity="0.80"></rect><rect width="493" height="6" x="-166.5" y="239" rx="3" transform="rotate(41, 80, 242)" opacity="0.95"></rect><rect width="698" height="6" x="165" y="580" rx="3" transform="rotate(41, 514, 583)" opacity="0.31"></rect><rect width="163" height="6" x="230.5" y="747" rx="3" transform="rotate(41, 312, 750)" opacity="0.70"></rect><rect width="183" height="6" x="129.5" y="270" rx="3" transform="rotate(41, 221, 273)" opacity="0.19"></rect><rect width="148" height="6" x="236" y="782" rx="3" transform="rotate(41, 310, 785)" opacity="0.45"></rect><rect width="467" height="6" x="116.5" y="136" rx="3" transform="rotate(41, 350, 139)" opacity="0.94"></rect><rect width="404" height="6" x="568" y="661" rx="3" transform="rotate(41, 770, 664)" opacity="0.79"></rect><rect width="418" height="6" x="332" y="690" rx="3" transform="rotate(41, 541, 693)" opacity="0.50"></rect><rect width="460" height="6" x="-185" y="592" rx="3" transform="rotate(41, 45, 595)" opacity="0.46"></rect><rect width="466" height="6" x="254" y="678" rx="3" transform="rotate(41, 487, 681)" opacity="0.82"></rect><rect width="461" height="6" x="189.5" y="193" rx="3" transform="rotate(41, 420, 196)" opacity="0.91"></rect><rect width="41" height="6" x="335.5" y="254" rx="3" transform="rotate(41, 356, 257)" opacity="0.80"></rect><rect width="226" height="6" x="289" y="81" rx="3" transform="rotate(41, 402, 84)" opacity="0.23"></rect><rect width="210" height="6" x="669" y="146" rx="3" transform="rotate(41, 774, 149)" opacity="0.82"></rect><rect width="282" height="6" x="196" y="587" rx="3" transform="rotate(41, 337, 590)" opacity="0.69"></rect><rect width="378" height="6" x="-8" y="35" rx="3" transform="rotate(41, 181, 38)" opacity="0.25"></rect><rect width="185" height="6" x="458.5" y="478" rx="3" transform="rotate(41, 551, 481)" opacity="0.78"></rect><rect width="429" height="6" x="462.5" y="700" rx="3" transform="rotate(41, 677, 703)" opacity="0.21"></rect><rect width="220" height="6" x="38" y="224" rx="3" transform="rotate(41, 148, 227)" opacity="0.82"></rect><rect width="33" height="6" x="408.5" y="774" rx="3" transform="rotate(41, 425, 777)" opacity="0.75"></rect><rect width="383" height="6" x="306.5" y="414" rx="3" transform="rotate(41, 498, 417)" opacity="0.30"></rect><rect width="479" height="6" x="349.5" y="559" rx="3" transform="rotate(41, 589, 562)" opacity="0.77"></rect><rect width="282" height="6" x="-56" y="325" rx="3" transform="rotate(41, 85, 328)" opacity="0.35"></rect><rect width="98" height="6" x="714" y="580" rx="3" transform="rotate(41, 763, 583)" opacity="0.24"></rect><rect width="92" height="6" x="70" y="502" rx="3" transform="rotate(41, 116, 505)" opacity="0.48"></rect><rect width="51" height="6" x="12.5" y="407" rx="3" transform="rotate(41, 38, 410)" opacity="0.11"></rect><rect width="253" height="6" x="9.5" y="566" rx="3" transform="rotate(41, 136, 569)" opacity="0.87"></rect><rect width="172" height="6" x="288" y="721" rx="3" transform="rotate(41, 374, 724)" opacity="0.91"></rect><rect width="213" height="6" x="145.5" y="487" rx="3" transform="rotate(41, 252, 490)" opacity="0.78"></rect><rect width="72" height="6" x="646" y="766" rx="3" transform="rotate(41, 682, 769)" opacity="0.62"></rect><rect width="282" height="6" x="518" y="594" rx="3" transform="rotate(41, 659, 597)" opacity="0.88"></rect><rect width="129" height="6" x="693.5" y="412" rx="3" transform="rotate(41, 758, 415)" opacity="0.60"></rect><rect width="335" height="6" x="598.5" y="491" rx="3" transform="rotate(41, 766, 494)" opacity="0.78"></rect><rect width="55" height="6" x="32.5" y="34" rx="3" transform="rotate(41, 60, 37)" opacity="0.95"></rect><rect width="55" height="6" x="463.5" y="100" rx="3" transform="rotate(41, 491, 103)" opacity="0.77"></rect><rect width="381" height="6" x="-154.5" y="758" rx="3" transform="rotate(41, 36, 761)" opacity="0.31"></rect><rect width="716" height="6" x="349" y="150" rx="3" transform="rotate(41, 707, 153)" opacity="0.14"></rect><rect width="173" height="6" x="675.5" y="264" rx="3" transform="rotate(41, 762, 267)" opacity="0.52"></rect><rect width="76" height="6" x="664" y="236" rx="3" transform="rotate(41, 702, 239)" opacity="0.82"></rect><rect width="208" height="6" x="297" y="25" rx="3" transform="rotate(41, 401, 28)" opacity="0.11"></rect><rect width="571" height="6" x="181.5" y="228" rx="3" transform="rotate(41, 467, 231)" opacity="0.88"></rect><rect width="360" height="6" x="246" y="381" rx="3" transform="rotate(41, 426, 384)" opacity="0.29"></rect><rect width="653" height="6" x="-51.5" y="318" rx="3" transform="rotate(41, 275, 321)" opacity="0.47"></rect><rect width="353" height="6" x="521.5" y="531" rx="3" transform="rotate(41, 698, 534)" opacity="0.31"></rect><rect width="76" height="6" x="208" y="413" rx="3" transform="rotate(41, 246, 416)" opacity="0.90"></rect><rect width="563" height="6" x="297.5" y="43" rx="3" transform="rotate(41, 579, 46)" opacity="0.90"></rect><rect width="441" height="6" x="161.5" y="513" rx="3" transform="rotate(41, 382, 516)" opacity="0.71"></rect><rect width="117" height="6" x="-22.5" y="673" rx="3" transform="rotate(41, 36, 676)" opacity="0.19"></rect><rect width="563" height="6" x="-17.5" y="98" rx="3" transform="rotate(41, 264, 101)" opacity="0.91"></rect><rect width="90" height="6" x="201" y="178" rx="3" transform="rotate(41, 246, 181)" opacity="0.32"></rect><rect width="560" height="6" x="-137" y="284" rx="3" transform="rotate(41, 143, 287)" opacity="0.72"></rect><rect width="691" height="6" x="284.5" y="223" rx="3" transform="rotate(41, 630, 226)" opacity="0.79"></rect><rect width="208" height="6" x="317" y="716" rx="3" transform="rotate(41, 421, 719)" opacity="0.33"></rect><rect width="552" height="6" x="224" y="34" rx="3" transform="rotate(41, 500, 37)" opacity="0.42"></rect><rect width="297" height="6" x="276.5" y="138" rx="3" transform="rotate(41, 425, 141)" opacity="0.80"></rect><rect width="295" height="6" x="222.5" y="772" rx="3" transform="rotate(41, 370, 775)" opacity="0.32"></rect><rect width="689" height="6" x="-17.5" y="406" rx="3" transform="rotate(41, 327, 409)" opacity="0.65"></rect><rect width="195" height="6" x="345.5" y="520" rx="3" transform="rotate(41, 443, 523)" opacity="0.11"></rect><rect width="112" height="6" x="552" y="125" rx="3" transform="rotate(41, 608, 128)" opacity="0.42"></rect><rect width="351" height="6" x="313.5" y="495" rx="3" transform="rotate(41, 489, 498)" opacity="0.90"></rect><rect width="704" height="6" x="-172" y="352" rx="3" transform="rotate(41, 180, 355)" opacity="0.39"></rect><rect width="361" height="6" x="-132.5" y="460" rx="3" transform="rotate(41, 48, 463)" opacity="0.71"></rect><rect width="453" height="6" x="276.5" y="769" rx="3" transform="rotate(41, 503, 772)" opacity="0.79"></rect><rect width="642" height="6" x="376" y="72" rx="3" transform="rotate(41, 697, 75)" opacity="0.50"></rect><rect width="428" height="6" x="119" y="481" rx="3" transform="rotate(41, 333, 484)" opacity="0.68"></rect><rect width="306" height="6" x="436" y="758" rx="3" transform="rotate(41, 589, 761)" opacity="0.17"></rect><rect width="71" height="6" x="138.5" y="455" rx="3" transform="rotate(41, 174, 458)" opacity="0.72"></rect><rect width="222" height="6" x="658" y="342" rx="3" transform="rotate(41, 769, 345)" opacity="0.42"></rect><rect width="80" height="6" x="-13" y="345" rx="3" transform="rotate(41, 27, 348)" opacity="0.26"></rect><rect width="120" height="6" x="638" y="356" rx="3" transform="rotate(41, 698, 359)" opacity="0.89"></rect><rect width="79" height="6" x="650.5" y="441" rx="3" transform="rotate(41, 690, 444)" opacity="0.59"></rect><rect width="378" height="6" x="-163" y="256" rx="3" transform="rotate(41, 26, 259)" opacity="0.20"></rect><rect width="165" height="6" x="9.5" y="100" rx="3" transform="rotate(41, 92, 103)" opacity="0.95"></rect><rect width="275" height="6" x="325.5" y="737" rx="3" transform="rotate(41, 463, 740)" opacity="0.36"></rect><rect width="452" height="6" x="186" y="448" rx="3" transform="rotate(41, 412, 451)" opacity="0.48"></rect><rect width="175" height="6" x="106.5" y="619" rx="3" transform="rotate(41, 194, 622)" opacity="0.29"></rect><rect width="337" height="6" x="476.5" y="320" rx="3" transform="rotate(41, 645, 323)" opacity="0.45"></rect><rect width="222" height="6" x="317" y="668" rx="3" transform="rotate(41, 428, 671)" opacity="0.42"></rect><rect width="301" height="6" x="151.5" y="38" rx="3" transform="rotate(41, 302, 41)" opacity="0.15"></rect></g></svg>