<?xml version="1.0" encoding="UTF-8" standalone="no"?>
<!DOCTYPE svg PUBLIC "-//W3C//DTD SVG 1.1//EN" "http://www.w3.org/Graphics/SVG/1.1/DTD/svg11.dtd">
<svg width="100%" height="100%" viewBox="0 0 2161 2119" version="1.1" xmlns="http://www.w3.org/2000/svg" xmlns:xlink="http://www.w3.org/1999/xlink" xml:space="preserve" xmlns:serif="http://www.serif.com/" style="fill-rule:evenodd;clip-rule:evenodd;stroke-linecap:round;stroke-linejoin:round;stroke-miterlimit:1.5;">
    <g transform="matrix(1,0,0,1,-159.826,-694.618)">
        <g transform="matrix(1.43312,0,0,1.40525,-1944,-414.595)">
            <path d="M2975.66,1001.74C2975.66,884.512 2882.34,789.337 2767.39,789.337L1676.27,789.337C1561.32,789.337 1468,884.512 1468,1001.74L1468,2084.6C1468,2201.83 1561.32,2297 1676.27,2297L2767.39,2297C2882.34,2297 2975.66,2201.83 2975.66,2084.6L2975.66,1001.74Z" style="fill:rgb(136,0,49);"/>
        </g>
        <g transform="matrix(1.32443,0,0,1.29845,-1702.49,-249.793)">
            <path d="M2975.66,971.829C2975.66,871.109 2895.49,789.337 2796.75,789.337L1646.91,789.337C1548.17,789.337 1468,871.109 1468,971.829L1468,2114.51C1468,2215.23 1548.17,2297 1646.91,2297L2796.75,2297C2895.49,2297 2975.66,2215.23 2975.66,2114.51L2975.66,971.829Z" style="fill:none;stroke:white;stroke-width:47.66px;"/>
        </g>
        <g id="clock" transform="matrix(1.71982,0,0,1.71982,-2848.12,-328.627)">
            <g>
                <g transform="matrix(0.429129,0,0,0.429129,1525.62,605.368)">
                    <path d="M1951.83,301C1951.83,283.063 1966.39,268.5 1984.33,268.5C2002.27,268.5 2016.83,283.063 2016.83,301C2016.83,301 2016.83,571.911 2016.83,571.911C2016.83,589.849 2002.27,604.411 1984.33,604.411C1966.39,604.411 1951.83,589.849 1951.83,571.911L1951.83,301Z" style="fill:rgb(184,184,184);fill-opacity:0.5;"/>
                </g>
                <g transform="matrix(0.429129,0,0,0.429129,1525.62,1457.25)">
                    <path d="M1951.83,301C1951.83,283.063 1966.39,268.5 1984.33,268.5C2002.27,268.5 2016.83,283.063 2016.83,301C2016.83,301 2016.83,571.911 2016.83,571.911C2016.83,589.849 2002.27,604.411 1984.33,604.411C1966.39,604.411 1951.83,589.849 1951.83,571.911L1951.83,301Z" style="fill:rgb(184,184,184);fill-opacity:0.5;"/>
                </g>
                <g transform="matrix(0.219048,-0.126467,0.126467,0.219048,1674.32,1005.08)">
                    <path d="M1951.83,301C1951.83,283.063 1966.39,268.5 1984.33,268.5C2002.27,268.5 2016.83,283.063 2016.83,301C2016.83,301 2016.83,571.911 2016.83,571.911C2016.83,589.849 2002.27,604.411 1984.33,604.411C1966.39,604.411 1951.83,589.849 1951.83,571.911L1951.83,301Z" style="fill:rgb(184,184,184);fill-opacity:0.5;"/>
                </g>
                <g transform="matrix(0.219048,-0.126467,0.126467,0.219048,2100.26,1742.83)">
                    <path d="M1951.83,301C1951.83,283.063 1966.39,268.5 1984.33,268.5C2002.27,268.5 2016.83,283.063 2016.83,301C2016.83,301 2016.83,571.911 2016.83,571.911C2016.83,589.849 2002.27,604.411 1984.33,604.411C1966.39,604.411 1951.83,589.849 1951.83,571.911L1951.83,301Z" style="fill:rgb(184,184,184);fill-opacity:0.5;"/>
                </g>
                <g transform="matrix(0.126467,-0.219048,0.219048,0.126467,1661.72,1385.1)">
                    <path d="M1951.83,301C1951.83,283.063 1966.39,268.5 1984.33,268.5C2002.27,268.5 2016.83,283.063 2016.83,301C2016.83,301 2016.83,571.911 2016.83,571.911C2016.83,589.849 2002.27,604.411 1984.33,604.411C1966.39,604.411 1951.83,589.849 1951.83,571.911L1951.83,301Z" style="fill:rgb(184,184,184);fill-opacity:0.5;"/>
                </g>
                <g transform="matrix(0.126467,-0.219048,0.219048,0.126467,2399.47,1811.04)">
                    <path d="M1951.83,301C1951.83,283.063 1966.39,268.5 1984.33,268.5C2002.27,268.5 2016.83,283.063 2016.83,301C2016.83,301 2016.83,571.911 2016.83,571.911C2016.83,589.849 2002.27,604.411 1984.33,604.411C1966.39,604.411 1951.83,589.849 1951.83,571.911L1951.83,301Z" style="fill:rgb(184,184,184);fill-opacity:0.5;"/>
                </g>
                <g transform="matrix(-0.126467,-0.219048,0.219048,-0.126467,2163.62,1921.44)">
                    <path d="M1951.83,301C1951.83,283.063 1966.39,268.5 1984.33,268.5C2002.27,268.5 2016.83,283.063 2016.83,301C2016.83,301 2016.83,571.911 2016.83,571.911C2016.83,589.849 2002.27,604.411 1984.33,604.411C1966.39,604.411 1951.83,589.849 1951.83,571.911L1951.83,301Z" style="fill:rgb(184,184,184);fill-opacity:0.5;"/>
                </g>
                <g transform="matrix(-0.126467,-0.219048,0.219048,-0.126467,2901.37,1495.5)">
                    <path d="M1951.83,301C1951.83,283.063 1966.39,268.5 1984.33,268.5C2002.27,268.5 2016.83,283.063 2016.83,301C2016.83,301 2016.83,571.911 2016.83,571.911C2016.83,589.849 2002.27,604.411 1984.33,604.411C1966.39,604.411 1951.83,589.849 1951.83,571.911L1951.83,301Z" style="fill:rgb(184,184,184);fill-opacity:0.5;"/>
                </g>
                <g transform="matrix(-0.219048,-0.126467,0.126467,-0.219048,2543.64,1934.04)">
                    <path d="M1951.83,301C1951.83,283.063 1966.39,268.5 1984.33,268.5C2002.27,268.5 2016.83,283.063 2016.83,301C2016.83,301 2016.83,571.911 2016.83,571.911C2016.83,589.849 2002.27,604.411 1984.33,604.411C1966.39,604.411 1951.83,589.849 1951.83,571.911L1951.83,301Z" style="fill:rgb(184,184,184);fill-opacity:0.5;"/>
                </g>
                <g transform="matrix(-0.219048,-0.126467,0.126467,-0.219048,2969.59,1196.29)">
                    <path d="M1951.83,301C1951.83,283.063 1966.39,268.5 1984.33,268.5C2002.27,268.5 2016.83,283.063 2016.83,301C2016.83,301 2016.83,571.911 2016.83,571.911C2016.83,589.849 2002.27,604.411 1984.33,604.411C1966.39,604.411 1951.83,589.849 1951.83,571.911L1951.83,301Z" style="fill:rgb(184,184,184);fill-opacity:0.5;"/>
                </g>
                <g transform="matrix(2.62766e-17,-0.429129,0.429129,2.62766e-17,1763.91,2070.14)">
                    <path d="M1951.83,301C1951.83,283.063 1966.39,268.5 1984.33,268.5C2002.27,268.5 2016.83,283.063 2016.83,301C2016.83,301 2016.83,571.911 2016.83,571.911C2016.83,589.849 2002.27,604.411 1984.33,604.411C1966.39,604.411 1951.83,589.849 1951.83,571.911L1951.83,301Z" style="fill:rgb(184,184,184);fill-opacity:0.5;"/>
                </g>
                <g transform="matrix(2.62766e-17,-0.429129,0.429129,2.62766e-17,2615.8,2070.14)">
                    <path d="M1951.83,301C1951.83,283.063 1966.39,268.5 1984.33,268.5C2002.27,268.5 2016.83,283.063 2016.83,301C2016.83,301 2016.83,571.911 2016.83,571.911C2016.83,589.849 2002.27,604.411 1984.33,604.411C1966.39,604.411 1951.83,589.849 1951.83,571.911L1951.83,301Z" style="fill:rgb(184,184,184);fill-opacity:0.5;"/>
                </g>
            </g>
            <g transform="matrix(0.358776,0,0,0.358776,1710.16,689.859)">
                <g transform="matrix(3.3258,-1.92015,1.92015,3.3258,-8341.32,2348.42)">
                    <path d="M2305.41,808.519C2305.41,808.519 2321.8,1041.77 2425.55,1172.78" style="fill:none;stroke:rgb(247,240,185);stroke-width:14.07px;"/>
                </g>
                <g transform="matrix(3.62217,-2.09126,1.92015,3.3258,-9060.17,2763.45)">
                    <path d="M2195.16,1078.37C2195.16,1078.37 2293.02,1064.64 2425.55,1172.78" style="fill:none;stroke:rgb(247,240,185);stroke-width:13.45px;"/>
                </g>
                <g transform="matrix(0.896294,0,0,0.896294,-64.4645,121.308)">
                    <g transform="matrix(-0.975934,0,0,0.975934,2846.01,-14.392)">
                        <path d="M1206.44,1926.49C1225.29,1975.59 1272.44,2008 1325.03,2008C1377.62,2008 1424.78,1975.59 1443.63,1926.49C1424.78,1975.59 1377.62,2008 1325.03,2008C1272.44,2008 1225.29,1975.59 1206.44,1926.49Z" style="fill:none;stroke:rgb(247,240,185);stroke-width:77.2px;"/>
                    </g>
                    <g transform="matrix(-3.03278,0,0,3.03278,5586.68,-3883.25)">
                        <path d="M1198,1880.97C1198,1951.13 1254.87,2008 1325.03,2008C1377.62,2008 1424.78,1975.59 1443.63,1926.49C1424.78,1975.59 1377.62,2008 1325.03,2008C1254.87,2008 1198,1951.13 1198,1880.97Z" style="fill:none;stroke:rgb(247,240,185);stroke-width:24.84px;"/>
                    </g>
                    <g transform="matrix(-1.27767,0,0,1.27767,3105.28,-617.725)">
                        <path d="M1484.58,2017.03L1305.62,1943.48" style="fill:none;stroke:rgb(247,240,185);stroke-width:58.97px;"/>
                    </g>
                    <g transform="matrix(-1.75524,-0.750466,-0.750466,1.75524,4890.37,55.7743)">
                        <path d="M1240.16,1058.92C1240.16,947.316 1149.68,856.843 1038.08,856.843C1023.96,856.843 1009.88,858.323 996.064,861.258C1009.88,858.323 1023.96,856.843 1038.08,856.843C1149.68,856.843 1240.16,947.316 1240.16,1058.92Z" style="fill:none;stroke:rgb(247,240,185);stroke-width:39.47px;"/>
                    </g>
                    <g transform="matrix(-1.16783,-0.518285,-0.518285,1.16783,3777.6,317.011)">
                        <path d="M1118,1067.08L1017.14,1777.29" style="fill:none;stroke:rgb(247,240,185);stroke-width:58.97px;"/>
                    </g>
                    <g transform="matrix(-1.73512,-0.0569609,-0.0486729,1.48265,3302.89,-182.627)">
                        <path d="M583.356,746.612C545.614,714.191 502.005,697 457.5,697C326.42,697 220,843.3 220,1023.5C220,1203.7 326.42,1350 457.5,1350C496.382,1350 534.669,1336.88 569,1311.78C534.669,1336.88 496.382,1350 457.5,1350C326.42,1350 220,1203.7 220,1023.5C220,843.3 326.42,697 457.5,697C502.005,697 545.614,714.191 583.356,746.612Z" style="fill:none;stroke:rgb(247,240,185);stroke-width:46.66px;"/>
                    </g>
                </g>
            </g>
        </g>
    </g>
</svg>
